PathFileType	4	(X/Y/Z)	10_1_51_p1_0-514.trc
DataRate	CameraRate	NumFrames	NumMarkers	Units	OrigDataRate	OrigDataStartFrame	OrigNumFrames
59.0	59.0	6	27	m	59.0	450	515
Frame#	Time	RHip			RKnee			RAnkle			RBigToe			RSmallToe			RHeel			LHip			LKnee			LAnkle			LBigToe			LSmallToe			LHeel			Neck			Head			Nose			RShoulder			RElbow			RWrist			RThumb			RIndex			RPinky			LShoulder			LElbow			LWrist			LThumb			LIndex			LPinky			
		X1	Y1	Z1	X2	Y2	Z2	X3	Y3	Z3	X4	Y4	Z4	X5	Y5	Z5	X6	Y6	Z6	X7	Y7	Z7	X8	Y8	Z8	X9	Y9	Z9	X10	Y10	Z10	X11	Y11	Z11	X12	Y12	Z12	X13	Y13	Z13	X14	Y14	Z14	X15	Y15	Z15	X16	Y16	Z16	X17	Y17	Z17	X18	Y18	Z18	X19	Y19	Z19	X20	Y20	Z20	X21	Y21	Z21	X22	Y22	Z22	X23	Y23	Z23	X24	Y24	Z24	X25	Y25	Z25	X26	Y26	Z26	X27	Y27	Z27	
450	7.627118644067797	0.33407094865449777	0.46591687431754963	0.9495562542825596	0.32129937739612596	0.6215635312246849	1.392862093287289	0.30748281669051797	0.7803093961329826	1.7882793622825524	0.28093001503513465	0.6268448494190858	1.8771367131369656	0.35039465180111734	0.6624078490538687	1.8644516187666258	0.2670878852607019	0.8715902184124853	1.8460083438214905	0.13634949917192293	0.4364549640133176	0.9450216818288611	0.08603199493447382	0.6160023373102514	1.3805921647387864	0.08002580075031729	0.7363712884247439	1.741212222972413	0.10258291493319525	0.6194658753345695	1.880247897042665	0.05294432382166791	0.6167361301956471	1.8416083405956127	0.10001294411902754	0.7866201781644949	1.7925993933812032	0.2329682115477931	0.3785185649125417	0.46514567230199877	0.32217282310957646	0.30729638627673894	0.225353203474553	0.30353152913759557	0.27032189533023904	0.38304465887753747	0.3866922270176801	0.47389712229050684	0.5519082865150883	0.4181792504376477	0.5185210240816636	0.8294651645419866	0.438706796311602	0.46665785261393183	1.0632993598653349	0.37605085094396673	0.4633671247252826	1.1739340844677812	0.4009042110487104	0.4583245185485603	1.2121014443463933	0.41867348053906545	0.46830700350492377	1.1732335194423227	0.06000206856037042	0.41680347021362385	0.538499757895359	-0.023240850957685605	0.4751570537532406	0.8260342869032361	-0.02249375478852417	0.4294583678276002	1.0724613037514361	0.01443958141202178	0.39520136587818916	1.1666882925942392	-0.0016177418363978405	0.3645649119174922	1.176417941654556	-0.04875086397122933	0.42869007462981557	1.1764172615000164
451	7.6440677966101696	0.33450169771326205	0.46839937971004725	0.9533595913934935	0.3213175475560047	0.621603244779234	1.3929475555928816	0.3074634259020099	0.780219047413734	1.7882592450298305	0.2809113034659881	0.6268683443529757	1.8771917502712578	0.35044821911505747	0.6624729939972488	1.8646046938800696	0.2670761296606833	0.8715285923881666	1.846038618742559	0.13180030840529483	0.45076451883547225	0.9544856081945668	0.08598562842377469	0.6161115594415771	1.3807857606121883	0.08004137497773973	0.7364930073572105	1.7411514999879922	0.09679301681937967	0.6344080358850496	1.8865146799787802	0.05230560921216192	0.6184343454141972	1.8378618643059002	0.09951022420898864	0.7880961745982384	1.7886167819351377	0.23297889910572672	0.3785547746959552	0.465164299971464	0.32222195625500144	0.30723009491760755	0.22522421211332871	0.3035306848308436	0.2701352370774192	0.38310087319800357	0.38668284880793635	0.4740078085383483	0.5518689189733812	0.41778430206535966	0.5194892190191576	0.8255820856524001	0.43876397095751757	0.4668788888444169	1.0632680239412404	0.3805252192602808	0.44966106383328336	1.171342397785817	0.4086978886706525	0.44641677082714676	1.2125453726868747	0.41418984663995945	0.4833417065157875	1.1796547450158705	0.060059766954212015	0.4166857776398449	0.5385023855970725	-0.02300610462114953	0.47488671603603244	0.8259237474634522	-0.01713157528309247	0.41735963419719396	1.0662864447406946	0.01406569001004018	0.3963713242528189	1.162358609894265	-0.0015254364267303186	0.36479697339280565	1.1765627134580066	-0.04304449991935503	0.4343670435608515	1.182361379378953
452	7.661016949152542	0.33442146330026834	0.4651875444316407	0.9452508335266802	0.32138204556641053	0.6216398143949434	1.3929413624938547	0.3069987404734622	0.7817292434148922	1.7845228509082902	0.2808773519396265	0.6268404692488485	1.8769930509698924	0.3512373985878755	0.6650759018914164	1.8688264154627805	0.265926067740575	0.8730115629922136	1.8516273293437655	0.13487693177880267	0.4511192275990823	0.9466304806072802	0.08535102006215559	0.6130531844355819	1.3760714609404194	0.07947950875430226	0.7376277750747324	1.7377145814701325	0.10252714617586553	0.6194858257352612	1.8801254317996121	0.05107959366364894	0.6200447480690221	1.842211193068692	0.09769604927549096	0.7907639558996915	1.7898165795065177	0.2330109589585531	0.3784791025194382	0.4652080904172699	0.32219192820320186	0.30731945991398635	0.22528312335072825	0.30350802765519724	0.27000553857484194	0.38309147891674966	0.38669621986307645	0.47394556236058655	0.5518855324453339	0.4174920172757162	0.5204467762221344	0.8289786075123368	0.43804244269006637	0.4688815714640964	1.0630317645110918	0.384648827032071	0.4503461503671074	1.1712201043522217	0.40885722084240567	0.4461722670147121	1.2126896825293518	0.41975279709229324	0.4717273001533136	1.1810221100266243	0.06006662874028758	0.4166478337982395	0.5385483697376287	-0.02283868048396284	0.47456603897198835	0.8262009948120639	-0.021773178122173126	0.44082202333824827	1.065964734091258	0.015373266601898214	0.40882684334782204	1.1682851683162072	-0.0016265176267447057	0.36302634842533843	1.1729794941012532	-0.04426163491599494	0.4291566819210511	1.173319740372292
453	7.677966101694915	0.3333932435885363	0.4636512071721227	0.9377823590911394	0.32141595914392745	0.6218726702349302	1.3929853549666253	0.3060469019835792	0.7786910460822222	1.7789870385598952	0.28093338046225275	0.6268390545699094	1.8771886946894647	0.35047418143815295	0.662246633824405	1.8645151326557736	0.2672052965577418	0.871402266795882	1.8459357262122835	0.1350688970161695	0.4477343504023543	0.9387344384271934	0.08525991623195334	0.6132664128232502	1.3764002946571026	0.07996798644256083	0.7364570875335155	1.7412959364385747	0.10255199289351155	0.6191834161657142	1.880386196599821	0.0530562254821569	0.6212335040587023	1.843370011801298	0.09585853816385044	0.7832841748992461	1.792331331198573	0.23300651910100242	0.3783766361495786	0.4652540459747037	0.322207648789068	0.3072046921838697	0.22527179488466573	0.30356111264155394	0.2701706854742296	0.38303376078377976	0.38664723112201066	0.4740063181653155	0.5518309709619497	0.4177630812260132	0.5198364211636092	0.832954444252092	0.4380276623928807	0.469103879629203	1.0631770983633577	0.3852196252208766	0.4498517654964126	1.1747091444898228	0.4133229852196995	0.4454194549021841	1.216181440794971	0.42877723917710814	0.4581174314205932	1.1745534973593206	0.06005747458381481	0.41664053127274114	0.5386696649970014	-0.016803604749973954	0.4616985074531009	0.825492024705542	-0.014960802755603854	0.42930317578298516	1.0722829390105246	0.01573578029514198	0.4088707859346398	1.1684354522320666	-0.00016867379486532017	0.36736901288166046	1.1843894776000619	-0.042960688736843125	0.4381696386779087	1.1838747875221578
454	7.694915254237288	0.3327815627155532	0.4611875662235483	0.9337609105377523	0.321513201953664	0.6219404802205131	1.3927975173307727	0.3060001310414272	0.7785651678008064	1.7790144404578838	0.2780785072987773	0.6128979075038383	1.8713898297836098	0.35106149152100896	0.6642119043817276	1.8683789809613764	0.2670797921627033	0.8711488983737039	1.84525624998374	0.13380929409402934	0.4468054540973235	0.9344954444702379	0.08540048329008476	0.6129568303365881	1.3760320217479345	0.07999963976116746	0.7364892362025264	1.7410729516470613	0.10260501353389086	0.6189013417142105	1.8802404999971816	0.05178383177403183	0.6177488735795227	1.8455017079322669	0.09585516241588932	0.7834716502922253	1.7920857940424613	0.23304057803099545	0.37830625012295743	0.46529285422308697	0.3222003680212048	0.3073063864367102	0.22526154101808266	0.30350428446664063	0.2701847925933587	0.38298002517929425	0.38664121277458063	0.4741010362059315	0.5518324752387754	0.4135145906197898	0.5343674683984974	0.8341516161741924	0.43889966673838393	0.4669548253270794	1.0633851936111396	0.38520099733014773	0.4500290892863577	1.1745215543309595	0.41338664771328143	0.4457572112271744	1.216398534271692	0.4326858152842772	0.4447762872620386	1.1714259264907514	0.06009327970029279	0.41654654573153715	0.5385448535239719	-0.010715933121999992	0.4483931653783078	0.8247541280778705	-0.014834005251806585	0.42927073153338463	1.0722335943068277	0.01788538766150593	0.4212469361636763	1.1697473700267063	0.0003840047933707021	0.37748445909517314	1.1866840948040318	-0.03782447387733541	0.4528798043146354	1.1832466787689873
455	7.711864406779661	0.3322606598126855	0.4587569445318725	0.9298126101571663	0.3215361777945282	0.6220005077934292	1.392926866462089	0.30607127771299225	0.7787882958697784	1.779068473935022	0.27815135487806153	0.6129269902125387	1.8715217582766464	0.3502808276744329	0.6616107854165497	1.864046598145977	0.27107397714812226	0.8735860596039846	1.8454298359806514	0.1389127652350423	0.43374276299721115	0.9328306681594428	0.08521757632852577	0.6132880020695675	1.3759403416933804	0.07993673580034874	0.7366477980663183	1.741176577932207	0.10252278211072044	0.6191997719746722	1.8803392083161483	0.052356463551244466	0.6177947077405521	1.8373876543181094	0.10058386834325286	0.7861997463728401	1.783702757197016	0.23304854106809936	0.37823119860956034	0.46527936312697177	0.32212979204591946	0.3073854704809766	0.2251276041848201	0.30594939166073254	0.28066129742336315	0.3783947786009307	0.3866113950657397	0.4741532247886877	0.5518603602949349	0.41348848159379115	0.5344404864945369	0.8341277527053719	0.4387749485443397	0.4714974171233173	1.0669034127033539	0.38512133116862757	0.4681679827423899	1.1783852478950798	0.4173886874330066	0.44623374324796145	1.215958081606637	0.4365048810109191	0.4588998870544563	1.1771150279507376	0.06013568176280624	0.4163629885544296	0.5384816962790571	0.005733226046097386	0.42317281640978643	0.8194519591419681	-0.012572939017719297	0.4414076932398005	1.0703056917596216	0.02263337377290673	0.42438303126237514	1.1650758966000807	0.005124734430936179	0.38142218090088603	1.179575592395728	-0.03468514609987808	0.46883054700957166	1.1904375120216204
